<?xml version="1.0" standalone="no"?>
<!DOCTYPE svg PUBLIC "-//W3C//DTD SVG 20010904//EN"
 "http://www.w3.org/TR/2001/REC-SVG-20010904/DTD/svg10.dtd">
<svg version="1.0" xmlns="http://www.w3.org/2000/svg"
 width="640.000000pt" height="636.000000pt" viewBox="0 0 640.000000 636.000000"
 preserveAspectRatio="xMidYMid meet">
<metadata>
Created by potrace 1.15, written by Peter Selinger 2001-2017
</metadata>
<g transform="translate(0.000000,636.000000) scale(0.100000,-0.100000)"
fill="#000000" stroke="none">
<path d="M3005 6214 c-16 -2 -86 -9 -155 -15 -170 -15 -305 -40 -495 -92 -654
-180 -1195 -539 -1626 -1079 -339 -424 -557 -956 -624 -1526 -20 -166 -20
-489 0 -655 75 -635 318 -1180 742 -1669 242 -279 593 -548 940 -722 149 -74
376 -160 553 -209 314 -87 492 -111 845 -111 373 0 574 29 965 142 105 30 325
122 467 194 863 442 1472 1259 1627 2183 60 357 62 651 5 1010 -77 486 -301
990 -615 1385 -83 104 -383 405 -480 482 -455 360 -1024 599 -1577 664 -127
14 -510 27 -572 18z m492 -579 c957 -107 1782 -775 2081 -1685 97 -294 127
-509 119 -842 -7 -298 -27 -421 -110 -683 -287 -907 -1096 -1582 -2045 -1705
-299 -39 -679 -21 -936 44 -379 97 -717 264 -1006 500 -97 79 -268 250 -350
351 -266 326 -467 770 -525 1165 -39 267 -41 464 -4 743 94 734 552 1409 1214
1793 281 162 639 283 941 318 162 19 459 19 621 1z"/>
<path d="M2990 4844 c-233 -42 -387 -92 -560 -180 -307 -157 -591 -446 -740
-754 -124 -259 -187 -589 -162 -855 38 -408 192 -748 466 -1033 236 -245 527
-405 876 -484 93 -20 130 -23 330 -23 254 0 305 8 520 77 229 74 451 204 614
360 l81 77 -142 142 -141 142 -74 -67 c-297 -272 -698 -385 -1100 -310 -431
79 -796 390 -955 814 -69 182 -90 439 -54 647 12 67 33 155 47 195 220 610
836 958 1467 827 214 -44 402 -137 567 -280 l56 -47 143 142 142 142 -43 40
c-216 198 -479 332 -793 405 -73 17 -131 21 -305 24 -118 2 -226 1 -240 -1z"/>
</g>
</svg>
