<?xml version="1.0" standalone="no"?>
<!DOCTYPE svg PUBLIC "-//W3C//DTD SVG 20010904//EN"
 "http://www.w3.org/TR/2001/REC-SVG-20010904/DTD/svg10.dtd">
<svg version="1.0" xmlns="http://www.w3.org/2000/svg"
 width="736.000000pt" height="980.000000pt" viewBox="0 0 736.000000 980.000000"
 preserveAspectRatio="xMidYMid meet">
<metadata>
Created by potrace 1.16, written by Peter Selinger 2001-2019
</metadata>
<g transform="translate(0.000000,980.000000) scale(0.100000,-0.100000)"
fill="#000000" stroke="none">
<path d="M840 9790 c-384 -6 -419 -8 -466 -26 -124 -50 -243 -159 -309 -285
-37 -70 -39 -79 -46 -204 -4 -71 -8 -2099 -8 -4506 l-1 -4375 36 -60 c83 -138
182 -237 292 -291 51 -25 62 -26 320 -35 328 -12 5894 -2 6160 11 183 9 183 9
239 43 89 54 196 175 248 282 l45 92 0 3629 c-1 1997 -5 3718 -9 3825 -10 216
-16 242 -79 319 -81 100 -419 445 -847 865 -548 537 -667 645 -759 691 l-69
35 -2166 -2 c-1191 -1 -2353 -5 -2581 -8z m4470 -1120 c5 -628 8 -732 22 -780
19 -66 59 -104 127 -121 32 -8 269 -13 769 -16 l722 -5 -1 -3391 c0 -1866 -4
-3505 -8 -3643 -7 -220 -10 -254 -27 -283 l-19 -32 -3170 4 c-1805 3 -3195 9
-3227 14 -32 5 -61 12 -64 16 -4 4 -11 92 -15 195 -11 277 -10 8153 1 8430 9
230 19 304 43 319 17 11 1240 18 3172 18 l1670 0 5 -725z m676 253 c444 -424
759 -744 743 -754 -8 -5 -234 -9 -510 -9 l-496 0 -6 188 c-14 384 -7 812 13
812 4 0 119 -107 256 -237z"/>
<path d="M3235 6105 c-149 -32 -330 -129 -457 -244 -77 -70 -170 -195 -222
-300 -204 -405 -135 -850 183 -1185 119 -125 243 -206 392 -258 91 -32 99 -33
259 -33 143 0 176 3 245 23 158 46 292 120 399 221 94 90 124 172 92 256 -32
83 -139 147 -217 130 -50 -11 -77 -27 -149 -90 -229 -200 -543 -194 -751 14
-115 115 -163 250 -163 456 1 212 47 338 168 460 82 82 165 130 263 150 178
38 303 6 467 -119 49 -38 105 -75 124 -83 71 -30 175 10 218 83 57 97 35 205
-58 289 -109 98 -310 198 -460 229 -92 19 -249 20 -333 1z"/>
<path d="M5865 6063 c-130 -27 -125 -18 -409 -723 -107 -265 -199 -487 -204
-492 -11 -11 -70 120 -269 602 -187 454 -211 505 -252 552 -40 45 -86 62 -160
56 -66 -5 -100 -26 -143 -90 -49 -71 -47 -105 15 -263 198 -506 579 -1416 640
-1530 39 -73 81 -98 163 -97 82 1 123 25 161 97 50 92 176 393 385 915 272
683 309 799 275 867 -34 65 -137 119 -202 106z"/>
<path d="M1724 3261 l-321 -6 -35 -27 c-70 -53 -98 -162 -63 -246 9 -20 32
-54 53 -74 l36 -38 2283 0 2283 0 54 53 c64 61 75 99 56 185 -9 40 -23 66 -50
95 -32 35 -45 42 -96 49 -70 10 -3739 18 -4200 9z"/>
<path d="M1365 1978 c-58 -64 -75 -102 -75 -166 0 -54 41 -131 81 -152 12 -7
70 -16 128 -21 138 -12 4290 -12 4399 0 75 8 87 12 118 42 18 18 41 52 50 76
31 81 -2 194 -66 225 -78 38 -199 40 -2426 45 l-2160 5 -49 -54z"/>
</g>
</svg>
